<mxfile host="app.diagrams.net" modified="2023-09-21T14:41:24.752Z" agent="Mozilla/5.0 (X11; Linux x86_64) AppleWebKit/537.36 (KHTML, like Gecko) Chrome/116.0.0.0 Safari/537.36" version="21.8.0" etag="6G9yFXHaRXEBh8DJl-l2" type="github">
  <diagram name="Страница — 1" id="cHGV8ugSg-XkpJypo0K2">
    <mxGraphModel>
      <root>
        <mxCell id="0" />
        <mxCell id="1" parent="0" />
      </root>
    </mxGraphModel>
  </diagram>
</mxfile>
